<mxfile host="app.diagrams.net" modified="2022-07-15T13:57:25.339Z" agent="5.0 (Windows)" etag="u7qcAHCWj9ksRIWFK_KD" version="20.1.1" type="github">
  <diagram id="zNYm-z-tdMDx_SEaD8uH" name="Page-1">
    <mxGraphModel dx="1422" dy="702" grid="1" gridSize="10" guides="1" tooltips="1" connect="1" arrows="1" fold="1" page="1" pageScale="1" pageWidth="827" pageHeight="1169" math="0" shadow="0">
      <root>
        <mxCell id="0" />
        <mxCell id="1" parent="0" />
        <mxCell id="Mpl-Dbl5J2bxoMypx-n5-15" style="edgeStyle=orthogonalEdgeStyle;rounded=0;orthogonalLoop=1;jettySize=auto;html=1;" edge="1" parent="1" source="Mpl-Dbl5J2bxoMypx-n5-1" target="Mpl-Dbl5J2bxoMypx-n5-2">
          <mxGeometry relative="1" as="geometry">
            <Array as="points">
              <mxPoint x="252" y="340" />
            </Array>
          </mxGeometry>
        </mxCell>
        <mxCell id="Mpl-Dbl5J2bxoMypx-n5-17" value="光猫LAN3" style="edgeLabel;html=1;align=center;verticalAlign=middle;resizable=0;points=[];" vertex="1" connectable="0" parent="Mpl-Dbl5J2bxoMypx-n5-15">
          <mxGeometry x="0.0199" relative="1" as="geometry">
            <mxPoint x="-1" as="offset" />
          </mxGeometry>
        </mxCell>
        <mxCell id="Mpl-Dbl5J2bxoMypx-n5-19" value="Q6 LAN4" style="edgeLabel;html=1;align=center;verticalAlign=middle;resizable=0;points=[];" vertex="1" connectable="0" parent="Mpl-Dbl5J2bxoMypx-n5-15">
          <mxGeometry x="0.7354" y="2" relative="1" as="geometry">
            <mxPoint x="-5" as="offset" />
          </mxGeometry>
        </mxCell>
        <mxCell id="Mpl-Dbl5J2bxoMypx-n5-1" value="" style="image;html=1;image=img/lib/clip_art/networking/Router_128x128.png" vertex="1" parent="1">
          <mxGeometry x="222" y="235.4" width="80" height="60" as="geometry" />
        </mxCell>
        <mxCell id="Mpl-Dbl5J2bxoMypx-n5-7" style="edgeStyle=orthogonalEdgeStyle;rounded=0;orthogonalLoop=1;jettySize=auto;html=1;entryX=0.75;entryY=1;entryDx=0;entryDy=0;" edge="1" parent="1" source="Mpl-Dbl5J2bxoMypx-n5-2" target="Mpl-Dbl5J2bxoMypx-n5-1">
          <mxGeometry relative="1" as="geometry" />
        </mxCell>
        <mxCell id="Mpl-Dbl5J2bxoMypx-n5-16" value="光猫LAN2" style="edgeLabel;html=1;align=center;verticalAlign=middle;resizable=0;points=[];" vertex="1" connectable="0" parent="Mpl-Dbl5J2bxoMypx-n5-7">
          <mxGeometry x="0.1671" y="-4" relative="1" as="geometry">
            <mxPoint x="-4" y="4" as="offset" />
          </mxGeometry>
        </mxCell>
        <mxCell id="Mpl-Dbl5J2bxoMypx-n5-18" value="Q6 WAN" style="edgeLabel;html=1;align=center;verticalAlign=middle;resizable=0;points=[];" vertex="1" connectable="0" parent="Mpl-Dbl5J2bxoMypx-n5-7">
          <mxGeometry x="-0.6318" relative="1" as="geometry">
            <mxPoint as="offset" />
          </mxGeometry>
        </mxCell>
        <mxCell id="Mpl-Dbl5J2bxoMypx-n5-2" value="&lt;div&gt;华为Q6路由器&lt;/div&gt;&lt;div&gt;192.168.3.0/24&lt;br&gt;&lt;/div&gt;" style="points=[];aspect=fixed;html=1;align=center;shadow=0;dashed=0;image;image=img/lib/allied_telesis/security/Router_VPN.svg;" vertex="1" parent="1">
          <mxGeometry x="472" y="292.7" width="84.55" height="60" as="geometry" />
        </mxCell>
        <mxCell id="Mpl-Dbl5J2bxoMypx-n5-23" style="edgeStyle=orthogonalEdgeStyle;rounded=0;orthogonalLoop=1;jettySize=auto;html=1;" edge="1" parent="1" source="Mpl-Dbl5J2bxoMypx-n5-4" target="Mpl-Dbl5J2bxoMypx-n5-2">
          <mxGeometry relative="1" as="geometry">
            <Array as="points">
              <mxPoint x="602" y="330" />
              <mxPoint x="602" y="330" />
            </Array>
          </mxGeometry>
        </mxCell>
        <mxCell id="Mpl-Dbl5J2bxoMypx-n5-25" value="Q6 LAN2" style="edgeLabel;html=1;align=center;verticalAlign=middle;resizable=0;points=[];" vertex="1" connectable="0" parent="Mpl-Dbl5J2bxoMypx-n5-23">
          <mxGeometry x="0.2639" y="-1" relative="1" as="geometry">
            <mxPoint x="8" as="offset" />
          </mxGeometry>
        </mxCell>
        <mxCell id="Mpl-Dbl5J2bxoMypx-n5-4" value="" style="points=[];aspect=fixed;html=1;align=center;shadow=0;dashed=0;image;image=img/lib/allied_telesis/wireless/Access_Point_Indoor.svg;" vertex="1" parent="1">
          <mxGeometry x="642" y="295.40000000000003" width="36.6" height="54.6" as="geometry" />
        </mxCell>
        <mxCell id="Mpl-Dbl5J2bxoMypx-n5-6" style="edgeStyle=orthogonalEdgeStyle;rounded=0;orthogonalLoop=1;jettySize=auto;html=1;entryX=1;entryY=0.5;entryDx=0;entryDy=0;" edge="1" parent="1" source="Mpl-Dbl5J2bxoMypx-n5-5" target="Mpl-Dbl5J2bxoMypx-n5-1">
          <mxGeometry relative="1" as="geometry">
            <Array as="points">
              <mxPoint x="382" y="210" />
              <mxPoint x="382" y="265" />
            </Array>
          </mxGeometry>
        </mxCell>
        <mxCell id="Mpl-Dbl5J2bxoMypx-n5-14" value="光猫LAN1" style="edgeLabel;html=1;align=center;verticalAlign=middle;resizable=0;points=[];" vertex="1" connectable="0" parent="Mpl-Dbl5J2bxoMypx-n5-6">
          <mxGeometry x="0.1246" y="1" relative="1" as="geometry">
            <mxPoint x="-41" y="24" as="offset" />
          </mxGeometry>
        </mxCell>
        <mxCell id="Mpl-Dbl5J2bxoMypx-n5-5" value="" style="points=[];aspect=fixed;html=1;align=center;shadow=0;dashed=0;image;image=img/lib/allied_telesis/media_converters/Media_Converter_Standalone.svg;" vertex="1" parent="1">
          <mxGeometry x="482" y="198.2" width="45.6" height="37.2" as="geometry" />
        </mxCell>
        <mxCell id="Mpl-Dbl5J2bxoMypx-n5-20" style="edgeStyle=orthogonalEdgeStyle;rounded=0;orthogonalLoop=1;jettySize=auto;html=1;" edge="1" parent="1" source="Mpl-Dbl5J2bxoMypx-n5-9">
          <mxGeometry relative="1" as="geometry">
            <mxPoint x="562" y="310" as="targetPoint" />
            <Array as="points">
              <mxPoint x="562" y="263" />
            </Array>
          </mxGeometry>
        </mxCell>
        <mxCell id="Mpl-Dbl5J2bxoMypx-n5-24" value="Q6 LAN1" style="edgeLabel;html=1;align=center;verticalAlign=middle;resizable=0;points=[];" vertex="1" connectable="0" parent="Mpl-Dbl5J2bxoMypx-n5-20">
          <mxGeometry x="-0.1359" y="-2" relative="1" as="geometry">
            <mxPoint x="9" as="offset" />
          </mxGeometry>
        </mxCell>
        <mxCell id="Mpl-Dbl5J2bxoMypx-n5-9" value="" style="points=[];aspect=fixed;html=1;align=center;shadow=0;dashed=0;image;image=img/lib/allied_telesis/wireless/Access_Point_Indoor.svg;" vertex="1" parent="1">
          <mxGeometry x="642" y="228.4" width="36.6" height="54.6" as="geometry" />
        </mxCell>
        <mxCell id="Mpl-Dbl5J2bxoMypx-n5-22" style="edgeStyle=orthogonalEdgeStyle;rounded=0;orthogonalLoop=1;jettySize=auto;html=1;" edge="1" parent="1" source="Mpl-Dbl5J2bxoMypx-n5-10">
          <mxGeometry relative="1" as="geometry">
            <mxPoint x="562" y="340" as="targetPoint" />
          </mxGeometry>
        </mxCell>
        <mxCell id="Mpl-Dbl5J2bxoMypx-n5-26" value="Q6 LAN3" style="edgeLabel;html=1;align=center;verticalAlign=middle;resizable=0;points=[];" vertex="1" connectable="0" parent="Mpl-Dbl5J2bxoMypx-n5-22">
          <mxGeometry x="-0.1673" relative="1" as="geometry">
            <mxPoint x="6" as="offset" />
          </mxGeometry>
        </mxCell>
        <mxCell id="Mpl-Dbl5J2bxoMypx-n5-10" value="" style="points=[];aspect=fixed;html=1;align=center;shadow=0;dashed=0;image;image=img/lib/allied_telesis/wireless/Access_Point_Indoor.svg;" vertex="1" parent="1">
          <mxGeometry x="642" y="365" width="36.6" height="54.6" as="geometry" />
        </mxCell>
        <mxCell id="Mpl-Dbl5J2bxoMypx-n5-11" value="&lt;div&gt;华为HS8145V5光猫&lt;/div&gt;&lt;div&gt;192.168.100.0/24&lt;br&gt;&lt;/div&gt;" style="text;html=1;strokeColor=none;fillColor=none;align=center;verticalAlign=middle;whiteSpace=wrap;rounded=0;" vertex="1" parent="1">
          <mxGeometry x="212" y="190" width="120" height="30" as="geometry" />
        </mxCell>
        <mxCell id="Mpl-Dbl5J2bxoMypx-n5-12" value="" style="endArrow=none;dashed=1;html=1;dashPattern=1 3;strokeWidth=2;rounded=0;entryX=0;entryY=0.5;entryDx=0;entryDy=0;" edge="1" parent="1" target="Mpl-Dbl5J2bxoMypx-n5-1">
          <mxGeometry width="50" height="50" relative="1" as="geometry">
            <mxPoint x="62" y="265" as="sourcePoint" />
            <mxPoint x="262" y="420" as="targetPoint" />
          </mxGeometry>
        </mxCell>
        <mxCell id="Mpl-Dbl5J2bxoMypx-n5-13" value="入户光纤" style="edgeLabel;html=1;align=center;verticalAlign=middle;resizable=0;points=[];" vertex="1" connectable="0" parent="Mpl-Dbl5J2bxoMypx-n5-12">
          <mxGeometry x="-0.4375" y="1" relative="1" as="geometry">
            <mxPoint x="25" as="offset" />
          </mxGeometry>
        </mxCell>
        <mxCell id="Mpl-Dbl5J2bxoMypx-n5-27" value="&lt;div&gt;Q6 子路由&lt;/div&gt;&lt;div&gt;192.168.3.x&lt;br&gt;&lt;/div&gt;" style="text;html=1;strokeColor=none;fillColor=none;align=center;verticalAlign=middle;whiteSpace=wrap;rounded=0;" vertex="1" parent="1">
          <mxGeometry x="692" y="306.55" width="88" height="43.45" as="geometry" />
        </mxCell>
        <mxCell id="Mpl-Dbl5J2bxoMypx-n5-28" value="" style="shape=image;html=1;verticalAlign=top;verticalLabelPosition=bottom;labelBackgroundColor=#ffffff;imageAspect=0;aspect=fixed;image=https://cdn2.iconfinder.com/data/icons/whcompare-isometric-web-hosting-servers/50/web-browser-on-laptop-128.png" vertex="1" parent="1">
          <mxGeometry x="482" y="564" width="70" height="70" as="geometry" />
        </mxCell>
        <mxCell id="Mpl-Dbl5J2bxoMypx-n5-30" value="" style="verticalLabelPosition=bottom;sketch=0;aspect=fixed;html=1;verticalAlign=top;strokeColor=none;align=center;outlineConnect=0;shape=mxgraph.citrix.printer;" vertex="1" parent="1">
          <mxGeometry x="724" y="571" width="56" height="56" as="geometry" />
        </mxCell>
        <mxCell id="Mpl-Dbl5J2bxoMypx-n5-31" value="" style="aspect=fixed;perimeter=ellipsePerimeter;html=1;align=center;shadow=0;dashed=0;spacingTop=3;image;image=img/lib/active_directory/cell_phone.svg;" vertex="1" parent="1">
          <mxGeometry x="628.1" y="564" width="29.4" height="70" as="geometry" />
        </mxCell>
        <mxCell id="Mpl-Dbl5J2bxoMypx-n5-32" value="" style="html=1;strokeWidth=1;shadow=0;dashed=0;shape=mxgraph.ios7.misc.wifi;fillColor=#007AFF;strokeColor=none;buttonText=;strokeColor2=#222222;fontColor=#222222;fontSize=8;verticalLabelPosition=bottom;verticalAlign=top;align=center;sketch=0;" vertex="1" parent="1">
          <mxGeometry x="509.5" y="477" width="15" height="15" as="geometry" />
        </mxCell>
        <mxCell id="Mpl-Dbl5J2bxoMypx-n5-33" value="" style="html=1;strokeWidth=1;shadow=0;dashed=0;shape=mxgraph.ios7.misc.wifi;fillColor=#007AFF;strokeColor=none;buttonText=;strokeColor2=#222222;fontColor=#222222;fontSize=8;verticalLabelPosition=bottom;verticalAlign=top;align=center;sketch=0;" vertex="1" parent="1">
          <mxGeometry x="635.3" y="477" width="15" height="15" as="geometry" />
        </mxCell>
        <mxCell id="Mpl-Dbl5J2bxoMypx-n5-34" value="" style="html=1;strokeWidth=1;shadow=0;dashed=0;shape=mxgraph.ios7.misc.wifi;fillColor=#007AFF;strokeColor=none;buttonText=;strokeColor2=#222222;fontColor=#222222;fontSize=8;verticalLabelPosition=bottom;verticalAlign=top;align=center;sketch=0;" vertex="1" parent="1">
          <mxGeometry x="744.5" y="477" width="15" height="15" as="geometry" />
        </mxCell>
        <mxCell id="Mpl-Dbl5J2bxoMypx-n5-35" value="&lt;div&gt;静态&lt;/div&gt;&lt;div&gt;&lt;div&gt;IP:192.168.100.x&lt;/div&gt;&lt;div&gt;GW:192.168.100.1&lt;/div&gt;&lt;div&gt;DNS:223.5.5.5&lt;br&gt;&lt;/div&gt;&lt;/div&gt;" style="text;html=1;strokeColor=none;fillColor=none;align=center;verticalAlign=middle;whiteSpace=wrap;rounded=0;" vertex="1" parent="1">
          <mxGeometry x="487" y="506" width="60" height="30" as="geometry" />
        </mxCell>
        <mxCell id="Mpl-Dbl5J2bxoMypx-n5-36" value="&lt;div&gt;R2S&lt;br&gt;&lt;/div&gt;&lt;div&gt;IP:192.168.100.17&lt;/div&gt;&lt;div&gt;GW:192.168.100.1&lt;/div&gt;&lt;div&gt;DNS:223.5.5.5&lt;br&gt;&lt;/div&gt;" style="text;html=1;strokeColor=none;fillColor=none;align=center;verticalAlign=middle;whiteSpace=wrap;rounded=0;" vertex="1" parent="1">
          <mxGeometry x="436.55" y="139" width="120" height="30" as="geometry" />
        </mxCell>
        <mxCell id="Mpl-Dbl5J2bxoMypx-n5-37" value="&lt;div&gt;静态&lt;/div&gt;&lt;div&gt;IP:192.168.100.x&lt;/div&gt;&lt;div&gt;GW:192.168.100.17&lt;/div&gt;&lt;div&gt;DNS:223.5.5.5&lt;br&gt;&lt;/div&gt;" style="text;html=1;strokeColor=none;fillColor=none;align=center;verticalAlign=middle;whiteSpace=wrap;rounded=0;" vertex="1" parent="1">
          <mxGeometry x="612.8" y="506" width="60" height="30" as="geometry" />
        </mxCell>
        <mxCell id="Mpl-Dbl5J2bxoMypx-n5-38" value="&lt;div&gt;DHCP&lt;/div&gt;&lt;div&gt;192.168.3.x&lt;br&gt;&lt;/div&gt;" style="text;html=1;strokeColor=none;fillColor=none;align=center;verticalAlign=middle;whiteSpace=wrap;rounded=0;" vertex="1" parent="1">
          <mxGeometry x="720" y="499" width="60" height="30" as="geometry" />
        </mxCell>
        <mxCell id="Mpl-Dbl5J2bxoMypx-n5-39" value="" style="shape=curlyBracket;whiteSpace=wrap;html=1;rounded=1;flipH=1;rotation=-90;" vertex="1" parent="1">
          <mxGeometry x="625" y="332.5" width="20" height="235" as="geometry" />
        </mxCell>
      </root>
    </mxGraphModel>
  </diagram>
</mxfile>
